<mxfile type="github" version="12.1.9" pages="1" etag="_931qwHEy8WkIqRfZt-M" agent="Mozilla/5.0 (Windows NT 10.0; Win64; x64) AppleWebKit/537.36 (KHTML, like Gecko) Chrome/70.0.3538.102 Safari/537.36 Edge/18.18362" modified="2019-10-31T21:52:46.328Z" host="www.draw.io">
  <diagram id="Htczt1RavAQ6boFkdHNt" name="Page-1">
    <mxGraphModel grid="1" shadow="0" math="0" pageHeight="1169" pageWidth="827" pageScale="1" page="1" fold="1" arrows="1" connect="1" tooltips="1" guides="1" gridSize="10" dy="813" dx="1536">
      <root>
        <mxCell id="0"/>
        <mxCell id="1" parent="0"/>
        <mxCell id="Df3EplEFWCHqkdpquF4p-38" style="rhombus;whiteSpace=wrap;html=1;" value="&lt;font style=&quot;text-align: center ; color: rgb(0 , 0 , 0) ; text-transform: none ; text-indent: 0px ; letter-spacing: normal ; font-family: &amp;#34;helvetica&amp;#34; ; font-size: 10px ; font-style: normal ; font-variant: normal ; font-weight: 400 ; text-decoration: none ; word-spacing: 0px ; white-space: normal&quot;&gt;&lt;font style=&quot;font-size: 10px&quot;&gt;&lt;font style=&quot;font-size: 10px&quot;&gt;Definieer een input functie waar mensen de tweets kunnen invullen.Indien het aan de eisen voldoe&lt;/font&gt;t&lt;/font&gt;&lt;/font&gt;" parent="1" vertex="1">
          <mxGeometry width="130" as="geometry" height="60" x="350" y="370"/>
        </mxCell>
        <mxCell id="Df3EplEFWCHqkdpquF4p-1" style="ellipse;whiteSpace=wrap;html=1;aspect=fixed;" value="Start&lt;br&gt;" parent="1" vertex="1">
          <mxGeometry width="80" as="geometry" height="80" x="373" y="20"/>
        </mxCell>
        <mxCell id="Df3EplEFWCHqkdpquF4p-2" style="endArrow=classic;html=1;exitX=0.5;exitY=1;exitDx=0;exitDy=0;" value="" parent="1" source="Df3EplEFWCHqkdpquF4p-1" edge="1">
          <mxGeometry width="50" as="geometry" height="50" relative="1">
            <mxPoint as="sourcePoint" x="370" y="170"/>
            <mxPoint as="targetPoint" x="413" y="190"/>
          </mxGeometry>
        </mxCell>
        <mxCell id="Df3EplEFWCHqkdpquF4p-3" style="rounded=0;whiteSpace=wrap;html=1;" value="Import TKinter zodat je met het format kan werken.&amp;nbsp;" parent="1" vertex="1">
          <mxGeometry width="120" as="geometry" height="60" x="353" y="190"/>
        </mxCell>
        <mxCell id="Df3EplEFWCHqkdpquF4p-4" style="endArrow=classic;html=1;exitX=0.5;exitY=1;exitDx=0;exitDy=0;entryX=0.5;entryY=0;entryDx=0;entryDy=0;" value="" parent="1" source="Df3EplEFWCHqkdpquF4p-3" edge="1">
          <mxGeometry width="50" as="geometry" height="50" relative="1">
            <mxPoint as="sourcePoint" x="350" y="320"/>
            <mxPoint as="targetPoint" x="413" y="370"/>
          </mxGeometry>
        </mxCell>
        <mxCell id="Df3EplEFWCHqkdpquF4p-7" style="rounded=0;whiteSpace=wrap;html=1;" value="De tweet bevat te weinig karakters" parent="1" vertex="1">
          <mxGeometry width="120" as="geometry" height="60" x="40" y="470"/>
        </mxCell>
        <mxCell id="Df3EplEFWCHqkdpquF4p-8" style="rounded=0;whiteSpace=wrap;html=1;" value="De tweet voldoet aan de eisen" parent="1" vertex="1">
          <mxGeometry width="120" as="geometry" height="60" x="353" y="470"/>
        </mxCell>
        <mxCell id="Df3EplEFWCHqkdpquF4p-9" style="rounded=0;whiteSpace=wrap;html=1;" value="De tweet bevat meer dan de geÃ«iste karakters" parent="1" vertex="1">
          <mxGeometry width="120" as="geometry" height="60" x="670" y="470"/>
        </mxCell>
        <mxCell id="Df3EplEFWCHqkdpquF4p-10" style="endArrow=classic;html=1;entryX=0;entryY=0.5;entryDx=0;entryDy=0;exitX=0.5;exitY=0;exitDx=0;exitDy=0;" value="" parent="1" source="Df3EplEFWCHqkdpquF4p-7" edge="1">
          <mxGeometry width="50" as="geometry" height="50" relative="1">
            <mxPoint as="sourcePoint" x="40" y="600"/>
            <mxPoint as="targetPoint" x="353" y="400"/>
            <Array as="points">
              <mxPoint x="100" y="400"/>
            </Array>
          </mxGeometry>
        </mxCell>
        <mxCell id="Df3EplEFWCHqkdpquF4p-11" style="endArrow=classic;html=1;exitX=0.5;exitY=1;exitDx=0;exitDy=0;entryX=0.5;entryY=0;entryDx=0;entryDy=0;" target="Df3EplEFWCHqkdpquF4p-8" value="" parent="1" edge="1">
          <mxGeometry width="50" as="geometry" height="50" relative="1">
            <mxPoint as="sourcePoint" x="413" y="430"/>
            <mxPoint as="targetPoint" x="80" y="630"/>
          </mxGeometry>
        </mxCell>
        <mxCell id="Df3EplEFWCHqkdpquF4p-12" style="endArrow=classic;html=1;exitX=0.5;exitY=0;exitDx=0;exitDy=0;entryX=1;entryY=0.5;entryDx=0;entryDy=0;" value="" parent="1" source="Df3EplEFWCHqkdpquF4p-9" edge="1">
          <mxGeometry width="50" as="geometry" height="50" relative="1">
            <mxPoint as="sourcePoint" x="600" y="420"/>
            <mxPoint as="targetPoint" x="473" y="400"/>
            <Array as="points">
              <mxPoint x="730" y="400"/>
            </Array>
          </mxGeometry>
        </mxCell>
        <mxCell id="Df3EplEFWCHqkdpquF4p-13" style="endArrow=classic;html=1;entryX=1;entryY=0.5;entryDx=0;entryDy=0;" target="Df3EplEFWCHqkdpquF4p-7" value="" parent="1" source="Df3EplEFWCHqkdpquF4p-21" edge="1">
          <mxGeometry width="50" as="geometry" height="50" relative="1">
            <mxPoint as="sourcePoint" x="352" y="400"/>
            <mxPoint as="targetPoint" x="90" y="550"/>
          </mxGeometry>
        </mxCell>
        <mxCell id="Df3EplEFWCHqkdpquF4p-14" style="endArrow=classic;html=1;exitX=1;exitY=0.5;exitDx=0;exitDy=0;entryX=0;entryY=0.5;entryDx=0;entryDy=0;" target="Df3EplEFWCHqkdpquF4p-9" value="" parent="1" source="Df3EplEFWCHqkdpquF4p-24" edge="1">
          <mxGeometry width="50" as="geometry" height="50" relative="1">
            <mxPoint as="sourcePoint" x="40" y="600"/>
            <mxPoint as="targetPoint" x="90" y="550"/>
          </mxGeometry>
        </mxCell>
        <mxCell id="Df3EplEFWCHqkdpquF4p-15" style="rounded=0;whiteSpace=wrap;html=1;" value="Schrijf de tweet vervolgens uit naar een file die ze dan erachter plakt." parent="1" vertex="1">
          <mxGeometry width="120" as="geometry" height="60" x="353" y="750"/>
        </mxCell>
        <mxCell id="Df3EplEFWCHqkdpquF4p-16" style="endArrow=classic;html=1;exitX=0.5;exitY=1;exitDx=0;exitDy=0;" target="Df3EplEFWCHqkdpquF4p-15" value="" parent="1" source="Df3EplEFWCHqkdpquF4p-8" edge="1">
          <mxGeometry width="50" as="geometry" height="50" relative="1">
            <mxPoint as="sourcePoint" x="40" y="740"/>
            <mxPoint as="targetPoint" x="90" y="690"/>
          </mxGeometry>
        </mxCell>
        <mxCell id="Df3EplEFWCHqkdpquF4p-17" style="rounded=0;whiteSpace=wrap;html=1;" value="&lt;font style=&quot;font-size: 10px&quot;&gt;Geef de functie van het frame aan een variabele zodat het makkelijk op te roepen is&lt;/font&gt;" parent="1" vertex="1">
          <mxGeometry width="120" as="geometry" height="60" x="20" y="610"/>
        </mxCell>
        <mxCell id="Df3EplEFWCHqkdpquF4p-18" style="rounded=0;whiteSpace=wrap;html=1;" value="&lt;font style=&quot;font-size: 10px&quot;&gt;Vervolgens kan je door middel van het Canvas-widget het grafische gedeelte van je applicatie aanpassen. Om dit makkelijker te maken ken je dit ook toe aan een variabele en zet je de Reliable width en height op de gewenste plek&lt;/font&gt;" parent="1" vertex="1">
          <mxGeometry width="120" as="geometry" height="140" x="20" y="750"/>
        </mxCell>
        <mxCell id="Df3EplEFWCHqkdpquF4p-19" style="endArrow=classic;html=1;exitX=0.5;exitY=1;exitDx=0;exitDy=0;entryX=0.5;entryY=0;entryDx=0;entryDy=0;" target="Df3EplEFWCHqkdpquF4p-18" value="" parent="1" source="Df3EplEFWCHqkdpquF4p-17" edge="1">
          <mxGeometry width="50" as="geometry" height="50" relative="1">
            <mxPoint as="sourcePoint" x="20" y="960"/>
            <mxPoint as="targetPoint" x="70" y="910"/>
          </mxGeometry>
        </mxCell>
        <mxCell id="Df3EplEFWCHqkdpquF4p-20" style="rounded=0;whiteSpace=wrap;html=1;" value="Om dit in werking te stellen moet je de variabele opschrijven met een punt en dan pack" parent="1" vertex="1">
          <mxGeometry width="120" as="geometry" height="80" x="20" y="940"/>
        </mxCell>
        <mxCell id="Df3EplEFWCHqkdpquF4p-21" style="text;html=1;strokeColor=none;fillColor=none;align=center;verticalAlign=middle;whiteSpace=wrap;rounded=0;rotation=-30;" value="Als de imput niet voldoet aan de gestelde eis" parent="1" vertex="1">
          <mxGeometry width="130" as="geometry" height="20" x="190" y="440"/>
        </mxCell>
        <mxCell id="Df3EplEFWCHqkdpquF4p-22" style="endArrow=classic;html=1;entryX=1;entryY=0.5;entryDx=0;entryDy=0;" target="Df3EplEFWCHqkdpquF4p-21" value="" parent="1" edge="1">
          <mxGeometry width="50" as="geometry" height="50" relative="1">
            <mxPoint as="sourcePoint" x="352" y="400"/>
            <mxPoint as="targetPoint" x="160" y="500"/>
          </mxGeometry>
        </mxCell>
        <mxCell id="Df3EplEFWCHqkdpquF4p-24" style="text;html=1;strokeColor=none;fillColor=none;align=center;verticalAlign=middle;whiteSpace=wrap;rounded=0;rotation=30;" value="Als de input niet voldoet aan de gestelde eis" parent="1" vertex="1">
          <mxGeometry width="170" as="geometry" height="20" x="490" y="440"/>
        </mxCell>
        <mxCell id="Df3EplEFWCHqkdpquF4p-25" style="endArrow=classic;html=1;exitX=1;exitY=0.5;exitDx=0;exitDy=0;entryX=0;entryY=0.5;entryDx=0;entryDy=0;" target="Df3EplEFWCHqkdpquF4p-24" value="" parent="1" edge="1">
          <mxGeometry width="50" as="geometry" height="50" relative="1">
            <mxPoint as="sourcePoint" x="473" y="400"/>
            <mxPoint as="targetPoint" x="670" y="500"/>
          </mxGeometry>
        </mxCell>
        <mxCell id="Df3EplEFWCHqkdpquF4p-26" style="endArrow=classic;html=1;exitX=0.5;exitY=1;exitDx=0;exitDy=0;entryX=0.5;entryY=0;entryDx=0;entryDy=0;" target="Df3EplEFWCHqkdpquF4p-20" value="" parent="1" source="Df3EplEFWCHqkdpquF4p-18" edge="1">
          <mxGeometry width="50" as="geometry" height="50" relative="1">
            <mxPoint as="sourcePoint" x="20" y="1090"/>
            <mxPoint as="targetPoint" x="70" y="1040"/>
          </mxGeometry>
        </mxCell>
        <mxCell id="Df3EplEFWCHqkdpquF4p-27" style="rounded=0;whiteSpace=wrap;html=1;" value="Maak zoveel kopjes aan als er nodig zijn. Om kopjes te maken&amp;nbsp;" parent="1" vertex="1">
          <mxGeometry width="120" as="geometry" height="60" x="670" y="610"/>
        </mxCell>
        <mxCell id="Df3EplEFWCHqkdpquF4p-28" style="rounded=0;whiteSpace=wrap;html=1;" value="Als je een afbeelding nodig hebt als achtergrond moet je de afbeelding definieren en importen&amp;nbsp;" parent="1" vertex="1">
          <mxGeometry width="120" as="geometry" height="90" x="180" y="584"/>
        </mxCell>
        <mxCell id="Df3EplEFWCHqkdpquF4p-29" style="endArrow=classic;html=1;exitX=0.5;exitY=1;exitDx=0;exitDy=0;" value="" parent="1" source="Df3EplEFWCHqkdpquF4p-28" edge="1">
          <mxGeometry width="50" as="geometry" height="50" relative="1">
            <mxPoint as="sourcePoint" x="20" y="1090"/>
            <mxPoint as="targetPoint" x="240" y="750"/>
          </mxGeometry>
        </mxCell>
        <mxCell id="Df3EplEFWCHqkdpquF4p-30" style="rounded=0;whiteSpace=wrap;html=1;" value="Geef een Label uit om het te importen in je applicatie.&amp;nbsp;" parent="1" vertex="1">
          <mxGeometry width="120" as="geometry" height="60" x="180" y="750"/>
        </mxCell>
        <mxCell id="Df3EplEFWCHqkdpquF4p-31" style="endArrow=classic;html=1;exitX=0.5;exitY=1;exitDx=0;exitDy=0;" target="Df3EplEFWCHqkdpquF4p-32" value="" parent="1" source="Df3EplEFWCHqkdpquF4p-30" edge="1">
          <mxGeometry width="50" as="geometry" height="50" relative="1">
            <mxPoint as="sourcePoint" x="20" y="1090"/>
            <mxPoint as="targetPoint" x="240" y="880"/>
          </mxGeometry>
        </mxCell>
        <mxCell id="Df3EplEFWCHqkdpquF4p-32" style="rounded=0;whiteSpace=wrap;html=1;" value="Als laatste geef je het een reliable width en height zodat hij mee beweegt met de window van het scherm&amp;nbsp;" parent="1" vertex="1">
          <mxGeometry width="120" as="geometry" height="100" x="180" y="850"/>
        </mxCell>
        <mxCell id="Df3EplEFWCHqkdpquF4p-33" style="endArrow=classic;html=1;exitX=0.5;exitY=1;exitDx=0;exitDy=0;" target="Df3EplEFWCHqkdpquF4p-34" value="" parent="1" source="Df3EplEFWCHqkdpquF4p-27" edge="1">
          <mxGeometry width="50" as="geometry" height="50" relative="1">
            <mxPoint as="sourcePoint" x="20" y="1090"/>
            <mxPoint as="targetPoint" x="730" y="730"/>
          </mxGeometry>
        </mxCell>
        <mxCell id="Df3EplEFWCHqkdpquF4p-34" style="rounded=0;whiteSpace=wrap;html=1;" value="Geef ze een naam zodat ze makkelijker kunnen worden aangeroepen." parent="1" vertex="1">
          <mxGeometry width="120" as="geometry" height="60" x="670" y="700"/>
        </mxCell>
        <mxCell id="Df3EplEFWCHqkdpquF4p-35" style="endArrow=classic;html=1;exitX=0.5;exitY=1;exitDx=0;exitDy=0;entryX=0.5;entryY=0;entryDx=0;entryDy=0;" target="Df3EplEFWCHqkdpquF4p-36" value="" parent="1" source="Df3EplEFWCHqkdpquF4p-34" edge="1">
          <mxGeometry width="50" as="geometry" height="50" relative="1">
            <mxPoint as="sourcePoint" x="20" y="1090"/>
            <mxPoint as="targetPoint" x="730" y="810"/>
          </mxGeometry>
        </mxCell>
        <mxCell id="Df3EplEFWCHqkdpquF4p-36" style="rounded=0;whiteSpace=wrap;html=1;" value="Label ze en dan schrijf je tussen-haakjes de functie van het frame, De tekst, de font, de kleur van de tekst en de kleur van het label." parent="1" vertex="1">
          <mxGeometry width="120" as="geometry" height="140" x="670" y="810"/>
        </mxCell>
        <mxCell id="Df3EplEFWCHqkdpquF4p-40" style="rounded=0;whiteSpace=wrap;html=1;" value="Maak een invoerbalk waar de gebruiker zijn tweet kan invullen. Geef de width, de font en de grootte van het lettertype aan" parent="1" vertex="1">
          <mxGeometry width="120" as="geometry" height="116" x="530" y="584"/>
        </mxCell>
        <mxCell id="Df3EplEFWCHqkdpquF4p-41" style="rounded=0;whiteSpace=wrap;html=1;" value="Maak ook een button waar de gebruiker op kan klikken en waarbij het gaat naar een file" parent="1" vertex="1">
          <mxGeometry width="120" as="geometry" height="90" x="530" y="740"/>
        </mxCell>
        <mxCell id="Df3EplEFWCHqkdpquF4p-42" style="endArrow=classic;html=1;exitX=0.5;exitY=1;exitDx=0;exitDy=0;entryX=0.5;entryY=0;entryDx=0;entryDy=0;" target="Df3EplEFWCHqkdpquF4p-41" value="" parent="1" source="Df3EplEFWCHqkdpquF4p-40" edge="1">
          <mxGeometry width="50" as="geometry" height="50" relative="1">
            <mxPoint as="sourcePoint" x="20" y="1090"/>
            <mxPoint as="targetPoint" x="70" y="1040"/>
          </mxGeometry>
        </mxCell>
        <mxCell id="Df3EplEFWCHqkdpquF4p-43" style="endArrow=classic;html=1;exitX=0.5;exitY=1;exitDx=0;exitDy=0;" target="Df3EplEFWCHqkdpquF4p-47" value="" parent="1" source="Df3EplEFWCHqkdpquF4p-20" edge="1">
          <mxGeometry width="50" as="geometry" height="50" relative="1">
            <mxPoint as="sourcePoint" x="20" y="1090"/>
            <mxPoint as="targetPoint" x="290" y="1120"/>
          </mxGeometry>
        </mxCell>
        <mxCell id="Df3EplEFWCHqkdpquF4p-44" style="endArrow=classic;html=1;exitX=0.5;exitY=1;exitDx=0;exitDy=0;entryX=0.25;entryY=0;entryDx=0;entryDy=0;" target="Df3EplEFWCHqkdpquF4p-47" value="" parent="1" source="Df3EplEFWCHqkdpquF4p-32" edge="1">
          <mxGeometry width="50" as="geometry" height="50" relative="1">
            <mxPoint as="sourcePoint" x="10" y="1170"/>
            <mxPoint as="targetPoint" x="60" y="1120"/>
          </mxGeometry>
        </mxCell>
        <mxCell id="Df3EplEFWCHqkdpquF4p-45" style="endArrow=classic;html=1;exitX=0.5;exitY=1;exitDx=0;exitDy=0;entryX=0.75;entryY=0;entryDx=0;entryDy=0;" target="Df3EplEFWCHqkdpquF4p-47" value="" parent="1" source="Df3EplEFWCHqkdpquF4p-41" edge="1">
          <mxGeometry width="50" as="geometry" height="50" relative="1">
            <mxPoint as="sourcePoint" x="10" y="1250"/>
            <mxPoint as="targetPoint" x="60" y="1200"/>
          </mxGeometry>
        </mxCell>
        <mxCell id="Df3EplEFWCHqkdpquF4p-46" style="endArrow=classic;html=1;exitX=0.5;exitY=1;exitDx=0;exitDy=0;entryX=1;entryY=0.25;entryDx=0;entryDy=0;" target="Df3EplEFWCHqkdpquF4p-47" value="" parent="1" source="Df3EplEFWCHqkdpquF4p-36" edge="1">
          <mxGeometry width="50" as="geometry" height="50" relative="1">
            <mxPoint as="sourcePoint" x="10" y="1330"/>
            <mxPoint as="targetPoint" x="60" y="1280"/>
          </mxGeometry>
        </mxCell>
        <mxCell id="Df3EplEFWCHqkdpquF4p-47" style="rounded=0;whiteSpace=wrap;html=1;" value="Als alles op elkaar heb je een goed uitziend en werken tabblad waar de gebruiker zijn tweets kan plaatsen" parent="1" vertex="1">
          <mxGeometry width="120" as="geometry" height="100" x="353" y="1060"/>
        </mxCell>
        <mxCell id="474f1slIvcfBxBlu9twm-1" style="endArrow=classic;html=1;exitX=0.5;exitY=1;exitDx=0;exitDy=0;" target="474f1slIvcfBxBlu9twm-2" value="" parent="1" source="474f1slIvcfBxBlu9twm-3" edge="1">
          <mxGeometry width="50" as="geometry" height="50" relative="1">
            <mxPoint as="sourcePoint" x="20" y="1230"/>
            <mxPoint as="targetPoint" x="413" y="1230"/>
          </mxGeometry>
        </mxCell>
        <mxCell id="474f1slIvcfBxBlu9twm-2" style="ellipse;whiteSpace=wrap;html=1;aspect=fixed;" value="Einde" parent="1" vertex="1">
          <mxGeometry width="80" as="geometry" height="80" x="375" y="1390"/>
        </mxCell>
        <mxCell id="474f1slIvcfBxBlu9twm-3" style="rounded=0;whiteSpace=wrap;html=1;" value="Als laatste zet je de variabele van je applicatie met mainloop erachter dat de GUI gaat werken" parent="1" vertex="1">
          <mxGeometry width="120" as="geometry" height="100" x="353" y="1230"/>
        </mxCell>
        <mxCell id="474f1slIvcfBxBlu9twm-4" style="endArrow=classic;html=1;exitX=0.5;exitY=1;exitDx=0;exitDy=0;" target="474f1slIvcfBxBlu9twm-3" value="" parent="1" source="Df3EplEFWCHqkdpquF4p-47" edge="1">
          <mxGeometry width="50" as="geometry" height="50" relative="1">
            <mxPoint as="sourcePoint" x="413" y="1160"/>
            <mxPoint as="targetPoint" x="414.7037118322114" y="1390.0010973485186"/>
          </mxGeometry>
        </mxCell>
        <mxCell id="474f1slIvcfBxBlu9twm-5" style="endArrow=classic;html=1;exitX=0.5;exitY=1;exitDx=0;exitDy=0;entryX=0.5;entryY=0;entryDx=0;entryDy=0;" target="Df3EplEFWCHqkdpquF4p-47" value="" parent="1" source="Df3EplEFWCHqkdpquF4p-15" edge="1">
          <mxGeometry width="50" as="geometry" height="50" relative="1">
            <mxPoint as="sourcePoint" x="420" y="920"/>
            <mxPoint as="targetPoint" x="70" y="1490"/>
          </mxGeometry>
        </mxCell>
      </root>
    </mxGraphModel>
  </diagram>
</mxfile>
